<?xml version="1.0" encoding="UTF-8" standalone="no"?>
<svg
   version="1.1"
   width="595.27557pt"
   height="595.27557pt"
   id="svg48"
   viewBox="0 0 595.27557 595.27557"
   sodipodi:docname="Супер_Флора_лого_NEW_16.cdr"
   xmlns:inkscape="http://www.inkscape.org/namespaces/inkscape"
   xmlns:sodipodi="http://sodipodi.sourceforge.net/DTD/sodipodi-0.dtd"
   xmlns:xlink="http://www.w3.org/1999/xlink"
   xmlns="http://www.w3.org/2000/svg"
   xmlns:svg="http://www.w3.org/2000/svg">
  <sodipodi:namedview
     id="namedview50"
     pagecolor="#ffffff"
     bordercolor="#000000"
     borderopacity="0.25"
     inkscape:showpageshadow="2"
     inkscape:pageopacity="0.0"
     inkscape:pagecheckerboard="0"
     inkscape:deskcolor="#d1d1d1"
     inkscape:document-units="pt" />
  <path
     d="M -0.2021,0.2021 H 595.0735 V 595.4777 H -0.2021 Z"
     style="fill:#ffffff;fill-rule:evenodd"
     id="path2" />
  <path
     d="m 305.1887,273.2173 c 2.7408,-3.831 6.7672,-5.4879 10.6665,-5.3464 1.9914,0.0723 3.9487,0.6168 5.6821,1.5826 1.7495,0.9745 3.2748,2.3751 4.3846,4.1493 2.1435,3.4268 2.7368,8.2041 0.3657,13.9116 -3.5127,8.4541 -9.2311,14.1035 -15.5974,17.3038 -7.4375,3.7387 -15.7598,4.1134 -22.5059,1.7076 -5.5429,-1.9766 -9.5715,-5.2982 -12.2318,-9.4297 -2.4092,-3.7417 -3.6734,-8.1312 -3.9065,-12.7704 -0.229,-4.5606 0.5409,-9.36 2.1986,-14.0077 2.9874,-8.3647 8.8622,-16.3011 16.9719,-21.5231 1.2977,-0.8354 2.628,-1.6146 3.9761,-2.3227 1.3329,-0.7002 2.668,-1.3252 3.9898,-1.8613 2.571,-1.0428 5.161,-1.7841 7.6788,-2.1345 2.4179,-0.3361 4.767,-0.3095 6.9684,0.1576 1.4989,0.3181 2.9191,0.8266 4.1876,1.4919 1.8811,0.9868 3.422,2.3207 4.4048,3.9042 1.0615,1.7098 1.4873,3.6779 1.0374,5.7974 -0.1638,0.7716 -0.4512,1.5647 -0.8747,2.3723 -0.3436,0.6548 -0.7926,1.2263 -1.3213,1.711 -0.532,0.4881 -1.1494,0.8975 -1.8232,1.2229 l -1.7342,-3.5938 c 0.3254,-0.157 0.6154,-0.3472 0.8543,-0.5664 0.2109,-0.1933 0.3796,-0.4008 0.493,-0.6173 0.2418,-0.461 0.4062,-0.9151 0.5,-1.357 0.22,-1.0366 0.006,-2.0083 -0.5222,-2.8596 -0.6063,-0.9768 -1.6075,-1.8263 -2.8576,-2.4823 -0.9337,-0.4898 -2.0094,-0.8702 -3.1722,-1.1171 -1.7354,-0.3682 -3.623,-0.3844 -5.593,-0.1106 -2.1671,0.3014 -4.438,0.9564 -6.7258,1.8845 -1.2257,0.4969 -2.4404,1.0644 -3.6303,1.6895 -1.2396,0.6511 -2.471,1.3728 -3.6797,2.1509 -7.3392,4.7259 -12.6581,11.9166 -15.3624,19.4995 v 0.008 c -1.4887,4.174 -2.1818,8.4492 -1.9797,12.4764 0.1982,3.9484 1.2606,7.6632 3.2817,10.802 2.1957,3.4098 5.5528,6.1628 10.2005,7.8202 5.7909,2.065 12.9614,1.73 19.3963,-1.5046 5.5622,-2.7961 10.5769,-7.7769 13.6914,-15.2726 1.8079,-4.3511 1.4431,-7.8531 -0.0692,-10.2707 -0.7421,-1.1863 -1.762,-2.1229 -2.9316,-2.7746 -1.1857,-0.6604 -2.5245,-1.0332 -3.8849,-1.0825 -2.6484,-0.0958 -5.3932,1.0431 -7.2757,3.6745 z"
     style="fill:#359024;fill-rule:evenodd"
     id="path4" />
  <path
     d="m 204.7136,339.5871 c -1.861,0 -3.5439,-0.4042 -5.0482,-1.2129 -1.5047,-0.8087 -2.6873,-1.9307 -3.5485,-3.3656 -0.8608,-1.4349 -1.2914,-3.0569 -1.2914,-4.8656 0,-1.8091 0.4306,-3.4308 1.2914,-4.8657 0.8612,-1.4349 2.0438,-2.5569 3.5485,-3.3656 1.5043,-0.8087 3.1957,-1.2132 5.0743,-1.2132 1.5828,0 3.0132,0.2784 4.2916,0.8348 1.2784,0.5567 2.3525,1.3567 3.2221,2.4004 l -2.7133,2.5044 c -1.235,-1.4261 -2.7655,-2.1393 -4.5918,-2.1393 -1.1305,0 -2.1393,0.248 -3.0263,0.7435 -0.8869,0.4958 -1.5783,1.1871 -2.0741,2.0741 -0.4958,0.8873 -0.7435,1.8958 -0.7435,3.0266 0,1.1304 0.2477,2.1393 0.7435,3.0262 0.4958,0.887 1.1872,1.5784 2.0741,2.0741 0.887,0.4958 1.8958,0.7436 3.0263,0.7436 1.8263,0 3.3568,-0.7217 4.5918,-2.1654 l 2.7133,2.5047 c -0.8696,1.061 -1.9479,1.8697 -3.2351,2.4261 -1.287,0.5568 -2.7219,0.8348 -4.3047,0.8348 z m 26.3242,-18.5757 v 12.5493 c 0,2.7479 -0.7654,4.8569 -2.2958,6.3266 -1.5307,1.4698 -3.6439,2.2045 -6.34,2.2045 -1.548,0 -2.9653,-0.2131 -4.2525,-0.6392 -1.2869,-0.426 -2.3828,-1.0304 -3.2873,-1.813 l 1.6438,-3.1309 c 1.6523,1.3394 3.583,2.0089 5.7917,2.0089 1.5307,0 2.6654,-0.3869 3.4047,-1.161 0.7393,-0.7739 1.1089,-1.9698 1.1089,-3.5873 v -1.1219 c -1.2174,1.4958 -2.9395,2.2439 -5.1658,2.2439 -2.3131,0 -4.0915,-0.6568 -5.3354,-1.9698 -1.2435,-1.3133 -1.8652,-3.2049 -1.8652,-5.6747 v -6.2354 h 4.2265 v 5.9746 c 0,1.4264 0.339,2.5047 1.0173,3.2352 0.6784,0.7305 1.635,1.0956 2.8701,1.0956 1.3042,0 2.3392,-0.3824 3.1045,-1.1478 0.7654,-0.7653 1.148,-1.9219 1.148,-3.4699 v -5.6877 z m 20.9239,0 v 18.2628 h -4.2006 v -14.819 h -8.2443 v 14.819 h -4.2004 v -18.2628 z m 19.3584,16.6975 c -0.8697,0.5913 -1.961,1.0522 -3.2743,1.3828 -1.313,0.3305 -2.7088,0.4954 -4.1873,0.4954 -1.8437,0 -3.409,-0.2304 -4.6962,-0.6913 -1.2869,-0.4609 -2.2609,-1.1044 -2.922,-1.9304 -0.661,-0.8263 -0.9915,-1.77 -0.9915,-2.8307 0,-0.9743 0.2698,-1.8351 0.809,-2.5829 0.5391,-0.7481 1.2784,-1.3045 2.2175,-1.6699 -0.7132,-0.3827 -1.2653,-0.9043 -1.6568,-1.5653 -0.3912,-0.661 -0.5868,-1.4 -0.5868,-2.2175 0,-0.9916 0.3042,-1.8959 0.9131,-2.7134 0.6088,-0.8175 1.5307,-1.4697 2.7654,-1.9567 1.2348,-0.487 2.7482,-0.7305 4.5397,-0.7305 1.1826,0 2.3392,0.1173 3.4699,0.3521 1.1305,0.2349 2.1132,0.5524 2.948,0.9524 l -1.1741,3.2352 c -1.6001,-0.7481 -3.2958,-1.122 -5.0873,-1.122 -1.3567,0 -2.3786,0.2044 -3.0657,0.6132 -0.6868,0.4087 -1.0304,0.9609 -1.0304,1.6565 0,0.6435 0.2305,1.135 0.6914,1.474 0.4609,0.3393 1.1611,0.5089 2.1002,0.5089 h 4.983 v 3.3395 h -5.2438 c -1.061,0 -1.8785,0.1825 -2.4525,0.5479 -0.574,0.3651 -0.8609,0.8957 -0.8609,1.5914 0,0.7304 0.3696,1.3002 1.1086,1.709 0.7393,0.4087 1.8743,0.6128 3.4047,0.6128 1.0786,0 2.1569,-0.1434 3.2352,-0.4303 1.0783,-0.2871 1.9916,-0.6914 2.7394,-1.2132 z m 9.5224,-16.88 c 2.5569,0 4.5527,0.6262 5.9876,1.8785 1.4349,1.2523 2.1524,3.009 2.1524,5.2702 0,2.1393 -0.6477,3.8177 -1.9437,5.0352 -1.2957,1.2174 -3.1088,1.8263 -5.4397,1.8263 -0.7651,0 -1.5086,-0.0785 -2.2306,-0.235 -0.7217,-0.1564 -1.5001,-0.4172 -2.3349,-0.7826 v 5.4527 h -4.1743 v -10.8011 c 0,-2.4523 0.6826,-4.3396 2.048,-5.6614 1.3652,-1.3218 3.3438,-1.9828 5.9352,-1.9828 z m 0.0261,10.8272 c 1.2351,0 2.1872,-0.3132 2.857,-0.9391 0.6696,-0.6262 1.0044,-1.5134 1.0044,-2.6612 0,-1.1653 -0.3348,-2.0698 -1.0044,-2.7133 -0.6698,-0.6438 -1.5959,-0.9655 -2.7785,-0.9655 -1.235,0 -2.196,0.3566 -2.8831,1.0698 -0.6868,0.7132 -1.0304,1.7133 -1.0304,3.0002 v 2.035 c 0.5219,0.3654 1.1174,0.6522 1.787,0.8609 0.6698,0.2089 1.3524,0.3132 2.048,0.3132 z m 26.742,-10.9315 c 2.3134,0 4.3396,0.4045 6.0789,1.2132 1.7394,0.8087 3.0742,1.9261 4.0048,3.3525 0.9306,1.4261 1.3958,3.0436 1.3958,4.8527 0,1.8087 -0.4652,3.4262 -1.3958,4.8526 -0.9306,1.4261 -2.2654,2.5435 -4.0048,3.3525 -1.7393,0.8088 -3.7655,1.213 -6.0789,1.213 -2.3306,0 -4.3613,-0.4042 -6.0919,-1.213 -1.7305,-0.809 -3.0611,-1.9264 -3.9917,-3.3525 -0.9304,-1.4264 -1.3958,-3.0439 -1.3958,-4.8526 0,-1.8091 0.4654,-3.4266 1.3958,-4.8527 0.9306,-1.4264 2.2612,-2.5438 3.9917,-3.3525 1.7306,-0.8087 3.7613,-1.2132 6.0919,-1.2132 z m -7.3573,9.4184 c 0,1.5304 0.4655,2.8088 1.3958,3.835 0.9306,1.0261 2.2655,1.6783 4.0048,1.9567 V 324.377 c -1.7393,0.2784 -3.0742,0.9264 -4.0048,1.9437 -0.9303,1.0177 -1.3958,2.2916 -1.3958,3.8223 z m 9.3141,5.7917 c 1.7393,-0.2784 3.0742,-0.9306 4.0048,-1.9567 0.9303,-1.0262 1.3958,-2.3046 1.3958,-3.835 0,-1.5307 -0.4655,-2.8046 -1.3958,-3.8223 -0.9306,-1.0173 -2.2655,-1.6653 -4.0048,-1.9437 z m 21.4194,-15.2362 c 1.6175,0 3.0393,0.3217 4.2656,0.9652 1.2263,0.6437 2.1784,1.5871 2.8568,2.8307 0.6783,1.2438 1.0176,2.7439 1.0176,4.5005 v 10.2793 h -4.2525 v -10.6447 c 0,-1.4261 -0.3481,-2.5044 -1.0437,-3.2349 -0.6957,-0.7304 -1.6436,-1.0958 -2.8438,-1.0958 -1.2174,0 -2.1784,0.3654 -2.8828,1.0958 -0.7044,0.7305 -1.0568,1.8088 -1.0568,3.2349 v 10.6447 h -6.3396 l -0.0261,-3.4438 h 2.1132 v -6.8355 c 0,-1.7566 0.339,-3.2567 1.0174,-4.5005 0.6783,-1.2436 1.635,-2.187 2.87,-2.8307 1.2348,-0.6435 2.6697,-0.9652 4.3047,-0.9652 z m 20.9498,18.8886 c -1.8958,0 -3.6049,-0.4084 -5.1265,-1.2259 -1.5219,-0.8175 -2.7133,-1.9438 -3.5745,-3.3786 -0.8609,-1.4349 -1.2914,-3.0481 -1.2914,-4.8396 0,-1.7915 0.4305,-3.4047 1.2914,-4.8396 0.8612,-1.4349 2.0526,-2.5611 3.5745,-3.3786 1.5216,-0.8176 3.2307,-1.2263 5.1265,-1.2263 1.8958,0 3.6003,0.4087 5.1134,1.2263 1.5134,0.8175 2.7048,1.9437 3.5745,3.3786 0.8696,1.4349 1.3045,3.0481 1.3045,4.8396 0,1.7915 -0.4349,3.4047 -1.3045,4.8396 -0.8697,1.4348 -2.0611,2.5611 -3.5745,3.3786 -1.5131,0.8175 -3.2176,1.2259 -5.1134,1.2259 z m 0,-3.6002 c 1.0783,0 2.0523,-0.2478 2.9219,-0.7436 0.8697,-0.4957 1.5526,-1.1871 2.0481,-2.0741 0.4957,-0.8869 0.7435,-1.8958 0.7435,-3.0262 0,-1.1308 -0.2478,-2.1393 -0.7435,-3.0266 -0.4955,-0.887 -1.1784,-1.5783 -2.0481,-2.0741 -0.8696,-0.4955 -1.8436,-0.7435 -2.9219,-0.7435 -1.0783,0 -2.0523,0.248 -2.922,0.7435 -0.8697,0.4958 -1.5525,1.1871 -2.048,2.0741 -0.4958,0.8873 -0.7435,1.8958 -0.7435,3.0266 0,1.1304 0.2477,2.1393 0.7435,3.0262 0.4955,0.887 1.1783,1.5784 2.048,2.0741 0.8697,0.4958 1.8437,0.7436 2.922,0.7436 z m 20.8454,-15.158 c 2.5568,0 4.5527,0.6262 5.9876,1.8785 1.4349,1.2523 2.1524,3.009 2.1524,5.2702 0,2.1393 -0.6478,3.8177 -1.9438,5.0352 -1.2957,1.2174 -3.1087,1.8263 -5.4396,1.8263 -0.7651,0 -1.5086,-0.0785 -2.2306,-0.235 -0.7217,-0.1564 -1.5001,-0.4172 -2.3349,-0.7826 v 5.4527 h -4.1743 v -10.8011 c 0,-2.4523 0.6826,-4.3396 2.048,-5.6614 1.3652,-1.3218 3.3438,-1.9828 5.9352,-1.9828 z m 0.0261,10.8272 c 1.235,0 2.1872,-0.3132 2.857,-0.9391 0.6695,-0.6262 1.0043,-1.5134 1.0043,-2.6612 0,-1.1653 -0.3348,-2.0698 -1.0043,-2.7133 -0.6698,-0.6438 -1.5959,-0.9655 -2.7785,-0.9655 -1.2351,0 -2.196,0.3566 -2.8831,1.0698 -0.6869,0.7132 -1.0304,1.7133 -1.0304,3.0002 v 2.035 c 0.5218,0.3654 1.1174,0.6522 1.7869,0.8609 0.6699,0.2089 1.3524,0.3132 2.0481,0.3132 z m 18.8628,-10.9576 c 1.6872,0 3.157,0.3305 4.4093,0.9913 1.2521,0.661 2.2261,1.635 2.922,2.9222 0.6956,1.2869 1.0434,2.8437 1.0434,4.6698 v 9.9924 h -4.2265 v -4.3829 h -8.3485 v 4.3829 h -4.1743 v -9.9924 c 0,-1.8261 0.3478,-3.3829 1.0434,-4.6698 0.6959,-1.2872 1.6699,-2.2612 2.9222,-2.9222 1.2524,-0.6608 2.7218,-0.9913 4.409,-0.9913 z m 4.1482,10.8011 v -2.609 c 0,-1.5131 -0.3738,-2.6569 -1.1216,-3.4308 -0.7481,-0.7741 -1.7654,-1.161 -3.0526,-1.161 -1.3046,0 -2.3264,0.3869 -3.0654,1.161 -0.7393,0.7739 -1.1089,1.9177 -1.1089,3.4308 v 2.609 z"
     style="fill:#3a3a3a;fill-rule:evenodd"
     id="path6" />
  <defs
     id="defs14">
    <linearGradient
       id="grad1">
      <stop
         offset="0%"
         stop-color="#359024"
         stop-opacity="1.0000"
         id="stop8" />
      <stop
         offset="100%"
         stop-color="#0b5e1c"
         stop-opacity="1.0000"
         id="stop10" />
    </linearGradient>
    <linearGradient
       xlink:href="#grad1"
       id="grad2"
       x1="0"
       y1="0"
       x2="0"
       y2="1"
       gradientTransform="rotate(-146,0.5,0.5)"
       gradientUnits="objectBoundingBox" />
  </defs>
  <path
     d="m 307.1868,273.6774 c 5.6613,-6.3066 1.4278,-11.6609 -4.3943,-12.9362 -4.6621,-1.0214 -10.6713,0.9077 -12.9101,2.9428 2.2622,0.7786 4.3241,1.8383 6.2089,3.146 1.9453,1.3499 3.6963,2.9583 5.2786,4.7897 0.3805,0.4382 0.3337,1.1022 -0.1046,1.4827 -0.4384,0.3808 -1.1024,0.3339 -1.4831,-0.1046 -1.4765,-1.709 -3.0995,-3.2023 -4.891,-4.4454 -5.3012,-3.6781 -10.2723,-3.7777 -12.3306,3.4892 v 0 c 2.1455,-0.5873 4.3478,-0.7791 6.5604,-0.5188 2.9433,0.3458 5.8915,1.4862 8.7307,3.5516 0.4677,0.343 0.5691,0.9998 0.2264,1.4677 -0.3426,0.4676 -0.9998,0.5691 -1.4673,0.2263 -2.5337,-1.8434 -5.1437,-2.8586 -7.7326,-3.1628 -3.8786,-0.299 -8.1458,1.1232 -7.6462,7.355 1.6134,-0.8045 3.265,-1.4052 4.9542,-1.757 3.1472,-0.6552 6.399,-0.4428 9.7406,0.9284 0.5353,0.2217 0.7899,0.8351 0.5683,1.3704 -0.2217,0.5353 -0.8352,0.7899 -1.3704,0.5683 -2.9237,-1.1998 -5.763,-1.3866 -8.5075,-0.815 -2.7953,0.2607 -6.5178,1.9849 -5.0352,7.122 1.0652,-0.7945 2.2135,-1.4526 3.4542,-1.9582 1.8825,-0.767 3.9712,-1.1799 6.2993,-1.1811 0.5794,10e-4 1.0479,0.4718 1.0469,1.0509 -0.001,0.5794 -0.4719,1.0479 -1.0513,1.0467 -2.044,10e-4 -3.8693,0.36 -5.505,1.0264 -3.3138,1.3501 -3.5722,1.5714 -2.5104,4.6999 0.4151,1.2226 0.9883,2.3397 1.9624,3.1157 2.5399,2.023 5.6099,2.3118 8.6468,2.1821 1.965,-0.2279 3.2018,-0.5454 3.9142,-3.9801 0.3843,-1.8543 0.3933,-3.7882 -0.0436,-5.7953 -0.1239,-0.5648 0.2337,-1.1232 0.7986,-1.2471 0.565,-0.1237 1.1233,0.2338 1.2471,0.7989 0.5024,2.3075 0.4918,4.5345 0.0483,6.6726 -0.1953,0.9418 -0.4737,1.8641 -0.8283,2.7659 v 0 c 4.5277,1.5664 7.3398,-2.2105 6.9683,-5.5081 -0.3423,-2.5877 -1.3031,-5.1477 -2.961,-7.6759 -0.3186,-0.4855 -0.1832,-1.1375 0.3026,-1.4559 0.4855,-0.3187 1.1375,-0.1833 1.4562,0.3022 1.8347,2.7982 2.9009,5.6521 3.2848,8.5552 0.1721,1.3016 0.206,2.6104 0.1097,3.9261 v 0 c 5.7614,-0.1211 5.1327,-5.1573 4.1372,-7.4569 -0.7775,-2.0353 -1.9899,-3.8433 -3.7935,-5.3414 -0.4456,-0.3719 -0.5054,-1.0347 -0.1336,-1.4803 0.3719,-0.4455 1.0347,-0.5053 1.48,-0.1337 2.0962,1.7411 3.5047,3.8416 4.4081,6.2061 0.4535,1.1869 0.7773,2.4372 0.995,3.7395 v 0 c 3.6141,-4.0944 4.0797,-12.8426 0.918,-17.1613 -2.3576,-3.2207 -6.6968,-2.6202 -8.5538,-10e-4 -0.1642,-0.1373 -0.3282,-0.2749 -0.4924,-0.4122 z"
     style="fill:url(#grad2)"
     id="path16" />
  <path
     d="m 294.6453,287.2732 c 0.8572,0.1219 1.6194,-0.2486 1.7016,-0.8274 0.0825,-0.5786 -0.5462,-1.1469 -1.4037,-1.2688 -0.8575,-0.1219 -1.6195,0.2486 -1.7017,0.8274 -0.0824,0.5786 0.5463,1.1469 1.4038,1.2688 z"
     style="fill:#ffffff;fill-rule:evenodd"
     id="path18" />
  <path
     d="m 292.375,293.1273 c 0.2185,-1.2438 1.0769,-2.1331 1.9165,-1.9854 0.8393,0.1477 1.3431,1.2762 1.1242,2.52 -0.2188,1.2439 -1.0769,2.1331 -1.9165,1.9854 -0.8396,-0.1477 -1.343,-1.2762 -1.1242,-2.52 z"
     style="fill:#ffffff;fill-rule:evenodd"
     id="path20" />
  <path
     d="m 304.5302,268.9886 c -1.3391,-0.6863 -2.0494,-1.9757 -1.5862,-2.8797 0.4631,-0.9037 1.9247,-1.0803 3.2638,-0.394 1.3391,0.6862 2.0494,1.9757 1.5862,2.8797 -0.4631,0.9037 -1.925,1.08 -3.2638,0.394 z"
     style="fill:#ffffff;fill-rule:evenodd"
     id="path22" />
  <path
     d="m 305.7469,279.741 c 0.6814,0.8764 1.7138,1.2141 2.3054,0.7543 0.5916,-0.4601 0.5184,-1.5438 -0.1627,-2.4202 -0.6815,-0.8765 -1.7139,-1.2141 -2.3054,-0.7543 -0.5916,0.46 -0.5188,1.5437 0.1627,2.4202 z"
     style="fill:#ffffff;fill-rule:evenodd"
     id="path24" />
  <path
     d="m 300.5773,279.3679 c 1.0355,0.1472 1.9556,-0.3002 2.0551,-0.9989 0.0993,-0.6987 -0.6599,-1.385 -1.6951,-1.5321 -1.0352,-0.1471 -1.9556,0.3002 -2.0548,0.9989 -0.0995,0.6988 0.6596,1.3847 1.6948,1.5321 z"
     style="fill:#ffffff;fill-rule:evenodd"
     id="path26" />
  <text
     x="200.7213"
     y="356.35779"
     id="text46"><tspan
       font-family="'Montserrat Medium'"
       font-size="7.5px"
       fill="#3a3a3a"
       id="tspan28">САЛОНЫ</tspan><tspan
       font-family="'Montserrat Medium'"
       font-size="7.5px"
       fill="#3a3a3a"
       id="tspan30" /><tspan
       font-family="'Montserrat Medium'"
       font-size="7.5px"
       fill="#3a3a3a"
       id="tspan32">ФЛОРИСТИКИ</tspan><tspan
       font-family="'Montserrat Medium'"
       font-size="7.5px"
       fill="#3a3a3a"
       id="tspan34" /><tspan
       font-family="'Montserrat Medium'"
       font-size="7.5px"
       fill="#3a3a3a"
       id="tspan36">ДЕКОРА</tspan><tspan
       font-family="'Montserrat Medium'"
       font-size="7.5px"
       fill="#3a3a3a"
       id="tspan38" /><tspan
       font-family="'Montserrat Medium'"
       font-size="7.5px"
       fill="#3a3a3a"
       id="tspan40">И</tspan><tspan
       font-family="'Montserrat Medium'"
       font-size="7.5px"
       fill="#3a3a3a"
       id="tspan42" /><tspan
       font-family="'Montserrat Medium'"
       font-size="7.5px"
       fill="#3a3a3a"
       id="tspan44">ЛАНДШАФТА</tspan></text>
</svg>
